HIERARCHY
ROOT Hips
{
  OFFSET 51.6394 86.3663 -21.2171
  CHANNELS 6 Xposition Yposition Zposition Zrotation Xrotation Yrotation
  JOINT Chest
  {
    OFFSET 1.23234e-007 14.8421 1.27319e-009
    CHANNELS 6 Xposition Yposition Zposition Zrotation Xrotation Yrotation
    JOINT Neck
    {
      OFFSET 0.51659 29.8236 6.51843
      CHANNELS 6 Xposition Yposition Zposition Zrotation Xrotation Yrotation
      JOINT Head
      {
        OFFSET 1.16803e-007 7.47049 6.44171e-007
        CHANNELS 6 Xposition Yposition Zposition Zrotation Xrotation Yrotation
        End Site
        {
          OFFSET -4.32676e-008 16.2908 2.16786e-007
        }
      }
    }
    JOINT LeftCollar
    {
      OFFSET 6.64893 27.3161 3.27471
      CHANNELS 6 Xposition Yposition Zposition Zrotation Xrotation Yrotation
      JOINT LeftUpArm
      {
        OFFSET 10.8584 2.41798 -0.945791
        CHANNELS 6 Xposition Yposition Zposition Zrotation Xrotation Yrotation
        JOINT LeftLowArm
        {
          OFFSET 3.77631 -24.5904 -1.70468
          CHANNELS 6 Xposition Yposition Zposition Zrotation Xrotation Yrotation
          JOINT LeftHand
          {
            OFFSET 1.01026 -21.1231 1.74131
            CHANNELS 6 Xposition Yposition Zposition Zrotation Xrotation Yrotation
            End Site
            {
              OFFSET 1.17583e-006 -9.81266 -2.89439e-008
            }
          }
        }
      }
    }
    JOINT RightCollar
    {
      OFFSET -6.11406 27.2248 4.23427
      CHANNELS 6 Xposition Yposition Zposition Zrotation Xrotation Yrotation
      JOINT RightUpArm
      {
        OFFSET -10.4566 2.3285 -0.910794
        CHANNELS 6 Xposition Yposition Zposition Zrotation Xrotation Yrotation
        JOINT RightLowArm
        {
          OFFSET -3.86856 -25.191 -1.74633
          CHANNELS 6 Xposition Yposition Zposition Zrotation Xrotation Yrotation
          JOINT RightHand
          {
            OFFSET -1.04759 -20.6242 1.75213
            CHANNELS 6 Xposition Yposition Zposition Zrotation Xrotation Yrotation
            End Site
            {
              OFFSET -2.03487e-006 -9.50367 -4.31372e-006
            }
          }
        }
      }
    }
  }
  JOINT LeftUpLeg
  {
    OFFSET 9 -3.38008e-006 -5.22997e-009
    CHANNELS 6 Xposition Yposition Zposition Zrotation Xrotation Yrotation
    JOINT LeftLowLeg
    {
      OFFSET -0.575 -51.431 3.90177
      CHANNELS 6 Xposition Yposition Zposition Zrotation Xrotation Yrotation
      JOINT LeftFoot
      {
        OFFSET 2.13082e-007 -43.5882 -3.90177
        CHANNELS 6 Xposition Yposition Zposition Zrotation Xrotation Yrotation
        End Site
        {
          OFFSET 7.44796e-007 -6.93413 15.0046
        }
      }
    }
  }
  JOINT RightUpLeg
  {
    OFFSET -9 6.86154e-007 -3.19535e-009
    CHANNELS 6 Xposition Yposition Zposition Zrotation Xrotation Yrotation
    JOINT RightLowLeg
    {
      OFFSET 0.575 -51.4311 3.90177
      CHANNELS 6 Xposition Yposition Zposition Zrotation Xrotation Yrotation
      JOINT RightFoot
      {
        OFFSET -7.46079e-007 -43.5882 -3.90177
        CHANNELS 6 Xposition Yposition Zposition Zrotation Xrotation Yrotation
        End Site
        {
          OFFSET 4.66716e-007 -6.93413 15.0046
        }
      }
    }
  }
}
MOTION
Frames:	5
Frame Time:	0.0333333
60.9051 84.3057 16.2652 -2.47641 1.69956 -112.862 1.23236e-007 14.8421 1.27271e-009 -5.89688 7.7652 8.70898 0.51659 29.8236 6.51843 -1.93125 -20.7142 14.7799 1.16803e-007 7.47049 6.44181e-007 1.24764 19.5893 12.7358 6.64893 27.3161 3.27471 -2.94784 5.93879 -4.20517 10.8584 2.41798 -0.945791 133.249 -34.0402 85.4968 3.77631 -24.5904 -1.70468 27.7705 -16.019 -57.907 1.01026 -21.1231 1.74131 55.397 0.937346 6.52728 -6.11406 27.2248 4.23427 -1.96452 7.32629 3.42623 -10.4566 2.3285 -0.910794 77.5636 -43.0315 78.4107 -3.86856 -25.191 -1.74633 54.7093 -41.6295 4.6584 -1.04759 -20.6242 1.75213 -27.998 17.1761 -0.153163 9 -3.38008e-006 -5.22742e-009 45.0833 -17.3991 45.9562 -0.575 -51.431 3.90177 -20.2539 50.3537 -5.22828 2.13081e-007 -43.5882 -3.90177 -0.16046 1.77529 0.0279213 -9 6.86154e-007 -3.19403e-009 -26.0642 -11.9621 -28.2885 0.575 -51.4311 3.90177 -1.77543 54.9237 13.8004 -7.46079e-007 -43.5882 -3.90177 -16.7873 -23.9746 -1.75067 
61.0361 84.1282 16.2846 -2.31479 1.55467 -113.599 1.23236e-007 14.8421 1.27269e-009 -6.52573 7.66334 8.59136 0.51659 29.8236 6.51843 -2.30634 -21.6669 15.1626 1.16803e-007 7.47049 6.44181e-007 1.65484 19.9945 12.8473 6.64893 27.3161 3.27471 -2.94784 5.93879 -4.20517 10.8584 2.41798 -0.945791 130.848 -30.9958 83.1397 3.77631 -24.5904 -1.70468 27.1068 -16.0304 -59.1151 1.01026 -21.1231 1.74131 57.3186 1.83945 6.38791 -6.11406 27.2248 4.23427 -1.96452 7.32629 3.42623 -10.4566 2.3285 -0.910794 76.9341 -44.8834 78.1561 -3.86856 -25.191 -1.74633 58.9941 -41.593 8.94683 -1.04759 -20.6242 1.75213 -27.2129 16.8159 -0.24222 9 -3.38008e-006 -5.22743e-009 45.4008 -17.1404 46.4783 -0.575 -51.431 3.90177 -20.5983 50.5699 -4.74534 2.13081e-007 -43.5882 -3.90177 -0.109148 1.68911 0.0214924 -9 6.86154e-007 -3.19405e-009 -26.2432 -12.7607 -28.2135 0.575 -51.4311 3.90177 -1.99039 55.3808 14.2655 -7.46079e-007 -43.5882 -3.90177 -16.9175 -24.1311 -1.78983 
61.1686 83.9365 16.2943 -2.35573 1.38662 -114.076 1.23236e-007 14.8421 1.27268e-009 -7.12116 7.69907 8.1484 0.51659 29.8236 6.51843 -2.59172 -22.2905 15.6149 1.16803e-007 7.47049 6.44181e-007 1.89654 20.1698 13.1066 6.64893 27.3161 3.27471 -2.94784 5.93879 -4.20517 10.8584 2.41798 -0.945791 129.227 -28.1875 81.6986 3.77631 -24.5904 -1.70468 26.4819 -16.0187 -60.6055 1.01026 -21.1231 1.74131 57.57 2.46406 6.12883 -6.11406 27.2248 4.23427 -1.96452 7.32629 3.42623 -10.4566 2.3285 -0.910794 76.9719 -46.5985 78.4972 -3.86856 -25.191 -1.74633 62.1727 -41.0508 11.7816 -1.04759 -20.6242 1.75213 -27.0577 15.8844 -0.41254 9 -3.38008e-006 -5.22743e-009 45.6206 -16.8638 46.9385 -0.575 -51.431 3.90177 -21.0231 50.8293 -4.46831 2.13081e-007 -43.5882 -3.90177 -0.175272 1.70974 0.0291609 -9 6.86154e-007 -3.19407e-009 -26.452 -13.2955 -28.1005 0.575 -51.4311 3.90177 -2.29812 55.8555 14.7184 -7.46079e-007 -43.5882 -3.90177 -17.0705 -24.3875 -1.84692 
61.3046 83.8109 16.2611 -2.34087 1.37712 -114.231 1.23236e-007 14.8421 1.27267e-009 -7.75917 7.67764 7.9989 0.51659 29.8236 6.51843 -2.62646 -22.1219 15.4959 1.16803e-007 7.47049 6.4418e-007 1.98972 20.0437 12.9732 6.64893 27.3161 3.27471 -2.94784 5.93879 -4.20517 10.8584 2.41798 -0.945791 128.72 -26.6707 81.0804 3.77631 -24.5904 -1.70468 25.9652 -15.9495 -61.4274 1.01026 -21.1231 1.74131 58.1898 3.23453 5.84617 -6.11406 27.2248 4.23427 -1.96452 7.32629 3.42623 -10.4566 2.3285 -0.910794 77.1075 -48.3328 78.7324 -3.86856 -25.191 -1.74633 63.9179 -40.3365 12.7942 -1.04759 -20.6242 1.75213 -26.9248 14.9247 -0.583827 9 -3.38008e-006 -5.22744e-009 45.8914 -16.7412 47.2801 -0.575 -51.431 3.90177 -21.2863 50.9499 -4.35661 2.13081e-007 -43.5882 -3.90177 -0.197761 1.7249 0.0318394 -9 6.86154e-007 -3.19409e-009 -26.4555 -13.604 -28.0596 0.575 -51.4311 3.90177 -2.4941 56.2224 14.7064 -7.46079e-007 -43.5882 -3.90177 -17.1879 -24.6648 -1.90308 
61.4641 83.6901 16.3015 -2.33392 1.21459 -114.333 1.23236e-007 14.8421 1.27265e-009 -8.37436 7.43075 7.53806 0.51659 29.8236 6.51843 -2.49636 -21.7753 15.379 1.16803e-007 7.47049 6.4418e-007 1.92865 20.0004 12.9178 6.64893 27.3161 3.27471 -2.94784 5.93879 -4.20517 10.8584 2.41798 -0.945791 128 -25.5119 79.9518 3.77631 -24.5904 -1.70468 25.3759 -15.8254 -61.7377 1.01026 -21.1231 1.74131 57.7917 2.9498 5.93153 -6.11406 27.2248 4.23427 -1.96452 7.32629 3.42623 -10.4566 2.3285 -0.910794 77.382 -49.649 79.0124 -3.86856 -25.191 -1.74633 64.6196 -39.6886 12.7562 -1.04759 -20.6242 1.75213 -26.5183 14.2914 -0.697021 9 -3.38008e-006 -5.22744e-009 45.9306 -16.6937 47.548 -0.575 -51.431 3.90177 -21.5998 50.9519 -4.26597 2.13081e-007 -43.5882 -3.90177 -0.122486 1.65939 0.0228178 -9 6.86154e-007 -3.19411e-009 -26.6189 -13.9846 -28.0606 0.575 -51.4311 3.90177 -2.728 56.5664 14.8502 -7.46079e-007 -43.5882 -3.90177 -17.2224 -24.7177 -1.91552 
